<?xml version="1.0" encoding="utf-8"?>
<!-- Generator: Adobe Illustrator 24.1.2, SVG Export Plug-In . SVG Version: 6.00 Build 0)  -->
<svg version="1.1" id="Layer_1" xmlns="http://www.w3.org/2000/svg" xmlns:xlink="http://www.w3.org/1999/xlink" x="0px" y="0px"
	 viewBox="0 0 1216 396" style="enable-background:new 0 0 1216 396;" xml:space="preserve">
<style type="text/css">
	.st0{fill:#038dff;}
</style>
<path class="st0" d="M333.81,173.22l-1.06-10.41l-10.42-0.82c-1.96-0.16-48.23-3.5-82.82,21.55l14.7,20.31
	c18.22-13.2,41.82-16.27,55.34-16.87c1.79,92.37-92.97,144.34-122.27,158.18V184.86l142.78-75.43L174.74,27.4L33.73,101.87v188.36
	l153.55,82.15v-1.49l0.56,1.44c1.63-0.63,40.14-15.82,77.44-47.43C315.85,282.04,339.55,229.59,333.81,173.22z M276.38,109.43
	l-101.63,53.7l-101.64-53.7l101.63-53.68L276.38,109.43z M58.81,275.2V130.23l103.4,54.63v145.66L58.81,275.2z"/>
<g>
	<path class="st0" d="M390.76,99.37v12.91h22.03v17.01h-22.03v30.33h-20.08V82.36h44.37v17.01H390.76z"/>
	<path class="st0" d="M446.29,159.62h-20.08V82.36h20.08V159.62z"/>
	<path class="st0" d="M536.46,116.48c-0.07,5.67-0.55,10.98-1.43,15.93c-0.89,4.95-3.04,9.85-6.46,14.7
		c-3.76,5.26-8.39,9.09-13.88,11.48c-5.5,2.39-11.49,3.59-17.98,3.59c-12.16,0-22.07-3.74-29.72-11.22
		c-7.65-7.48-11.48-17.3-11.48-29.46c0-12.57,3.88-22.65,11.63-30.23c7.75-7.58,17.85-11.37,30.28-11.37
		c7.92,0,14.87,1.79,20.85,5.38c5.98,3.59,10.64,9,13.99,16.24l-19.06,7.89c-1.37-3.62-3.48-6.56-6.35-8.81
		c-2.87-2.25-6.32-3.38-10.35-3.38c-6.22,0-11.02,2.32-14.4,6.97c-3.38,4.65-5.24,9.73-5.58,15.27c-0.07,0.34-0.1,0.7-0.1,1.08
		c0,0.38,0,0.73,0,1.08c0,0.07,0,0.15,0,0.26s0,0.22,0,0.36c0.14,5.88,1.95,11.27,5.43,16.19s8.47,7.38,14.96,7.38
		c4.37,0,8.06-1.13,11.07-3.38c3-2.25,4.71-5.6,5.12-10.04H496.6v-15.88H536.46z"/>
	<path class="st0" d="M576.42,159.62h-20.08V99.37h-16.6V82.36h53.28v17.01h-16.6V159.62z"/>
	<path class="st0" d="M640.26,127.95l24.28,31.66h-25l-18.96-29.72h-0.21v29.72h-20.08V82.36h30.02c7.65,0.07,14.04,2,19.16,5.79
		c5.12,3.79,7.68,9.82,7.68,18.09c0,5.33-1.45,10.06-4.35,14.19c-2.9,4.13-7.09,6.68-12.55,7.63V127.95z M620.38,116.99h1.95
		c0.34,0.07,0.68,0.1,1.02,0.1c0.34,0,0.65,0,0.92,0c3.01-0.14,5.75-0.84,8.25-2.1c2.49-1.26,3.74-3.77,3.74-7.53
		c0-3.8-1.25-6.33-3.74-7.61c-2.49-1.28-5.24-1.99-8.25-2.12c-0.27,0-0.58,0-0.92,0c-0.34,0-0.68,0-1.02,0h-1.95V116.99z"/>
	<path class="st0" d="M690.05,99.37v12.91h22.64v17.01h-22.64v13.32h23.88v17.01h-43.96V82.36h43.96v17.01H690.05z"/>
	<path class="st0" d="M746.41,99.37v12.91h22.64v17.01h-22.64v13.32h23.87v17.01h-43.96V82.36h43.96v17.01H746.41z"/>
</g>
<g>
	<path class="st0" d="M377.51,308.78h0.08l6.32-19.48h6.24l5.92,19.48h0.08l5.68-19.48h8.16l-9.64,30.16h-8l-5.28-17.48h-0.08
		l-5.92,17.48h-7.96l-9-30.16h8.16L377.51,308.78z"/>
	<path class="st0" d="M431.27,309.66v0.76h-15.32c0,1.49,0.39,2.63,1.16,3.42c0.77,0.79,1.91,1.18,3.4,1.18
		c0.77,0,1.45-0.15,2.02-0.44c0.57-0.29,1.06-0.77,1.46-1.44h7c-0.59,2.44-1.89,4.22-3.9,5.33c-2.01,1.11-4.19,1.67-6.54,1.67
		c-3.39,0-6.21-0.93-8.48-2.78c-2.27-1.85-3.4-4.55-3.4-8.1c0-3.41,1.06-6.09,3.18-8.04c2.12-1.95,4.85-2.92,8.18-2.92
		c3.57,0,6.34,1.03,8.3,3.08c1.96,2.05,2.94,4.83,2.94,8.32V309.66z M424.52,306.22c-0.19-0.96-0.67-1.73-1.46-2.32
		c-0.79-0.59-1.67-0.88-2.66-0.88c-1.07,0-2,0.27-2.8,0.81c-0.8,0.54-1.31,1.34-1.52,2.39H424.52z"/>
	<path class="st0" d="M463.75,317.18h-0.08c-0.59,0.96-1.39,1.67-2.4,2.14c-1.01,0.47-2.07,0.73-3.16,0.78
		c-0.11,0.03-0.21,0.04-0.32,0.04c-0.11,0-0.21,0-0.32,0c-3.04,0-5.53-1.09-7.46-3.26c-1.93-2.17-2.9-4.73-2.9-7.66
		c0-2.93,0.95-5.49,2.86-7.66c1.91-2.17,4.38-3.26,7.42-3.26c0.13,0,0.27,0,0.4,0c0.13,0,0.27,0.01,0.4,0.04
		c1.04,0.08,2.06,0.34,3.06,0.78s1.83,1.06,2.5,1.86v-14.72h7.28v33.2h-7.28V317.18z M455.87,306c-0.83,0.92-1.24,2.01-1.24,3.26
		c0,1.31,0.41,2.4,1.24,3.28c0.83,0.88,1.97,1.32,3.44,1.32c1.49,0,2.65-0.44,3.46-1.33s1.22-1.98,1.22-3.29
		c0-1.26-0.41-2.35-1.22-3.27s-1.97-1.39-3.46-1.39C457.85,304.6,456.7,305.08,455.87,306z"/>
	<path class="st0" d="M496.67,309.66v0.76h-15.32c0,1.49,0.39,2.63,1.16,3.42c0.77,0.79,1.91,1.18,3.4,1.18
		c0.77,0,1.45-0.15,2.02-0.44c0.57-0.29,1.06-0.77,1.46-1.44h7c-0.59,2.44-1.89,4.22-3.9,5.33c-2.01,1.11-4.19,1.67-6.54,1.67
		c-3.39,0-6.21-0.93-8.48-2.78c-2.27-1.85-3.4-4.55-3.4-8.1c0-3.41,1.06-6.09,3.18-8.04c2.12-1.95,4.85-2.92,8.18-2.92
		c3.57,0,6.34,1.03,8.3,3.08c1.96,2.05,2.94,4.83,2.94,8.32V309.66z M489.91,306.22c-0.19-0.96-0.67-1.73-1.46-2.32
		c-0.79-0.59-1.67-0.88-2.66-0.88c-1.07,0-2,0.27-2.8,0.81c-0.8,0.54-1.31,1.34-1.52,2.39H489.91z"/>
	<path class="st0" d="M507.27,319.46h-7.28v-33.2h7.28V319.46z"/>
	<path class="st0" d="M518.59,288.22c0.8,0.8,1.2,1.76,1.2,2.88c0,1.12-0.4,2.08-1.2,2.88c-0.8,0.8-1.76,1.2-2.88,1.2
		s-2.08-0.4-2.88-1.2c-0.8-0.8-1.2-1.76-1.2-2.88c0-1.13,0.4-2.1,1.2-2.91c0.8-0.81,1.76-1.21,2.88-1.21
		C516.83,287,517.79,287.42,518.59,288.22z M519.35,319.46h-7.28v-20.52h7.28V319.46z"/>
	<path class="st0" d="M534.23,309.46l4.88-10.52h8.16l-10.72,20.52h-4.64l-10.76-20.52h8.16L534.23,309.46z"/>
	<path class="st0" d="M570.15,309.66v0.76h-15.32c0,1.49,0.39,2.63,1.16,3.42c0.77,0.79,1.91,1.18,3.4,1.18
		c0.77,0,1.45-0.15,2.02-0.44c0.57-0.29,1.06-0.77,1.46-1.44h7c-0.59,2.44-1.89,4.22-3.9,5.33c-2.01,1.11-4.19,1.67-6.54,1.67
		c-3.39,0-6.21-0.93-8.48-2.78c-2.27-1.85-3.4-4.55-3.4-8.1c0-3.41,1.06-6.09,3.18-8.04c2.12-1.95,4.85-2.92,8.18-2.92
		c3.57,0,6.34,1.03,8.3,3.08c1.96,2.05,2.94,4.83,2.94,8.32V309.66z M563.39,306.22c-0.19-0.96-0.67-1.73-1.46-2.32
		c-0.79-0.59-1.67-0.88-2.66-0.88c-1.07,0-2,0.27-2.8,0.81c-0.8,0.54-1.31,1.34-1.52,2.39H563.39z"/>
	<path class="st0" d="M580.75,302.3h0.08c0.69-1.23,1.62-2.13,2.78-2.72c1.16-0.59,2.45-0.88,3.86-0.88l1.4-0.04v7
		c-0.11-0.03-0.21-0.07-0.3-0.12c-0.09-0.05-0.19-0.09-0.3-0.12c-0.4-0.16-0.8-0.27-1.2-0.32c-0.4-0.05-0.83-0.08-1.28-0.08
		c-2.03,0-3.37,0.59-4.04,1.78c-0.67,1.19-1,2.66-1,4.42v8.24h-7.28v-20.52h7.28V302.3z"/>
	<path class="st0" d="M613.27,319.46h-7.28v-14.52h-2.36v-6h2.36v-6.16h7.28v6.16h4.12v6h-4.12V319.46z"/>
	<path class="st0" d="M626.99,286.26v15.28h0.08c0.85-1.09,1.81-1.91,2.86-2.44c1.05-0.53,2.29-0.8,3.7-0.8
		c2.61,0,4.55,0.79,5.82,2.36c1.27,1.57,1.9,3.67,1.9,6.28v12.52h-7.28v-10.52c0-0.08,0-0.15,0-0.2c0-1.15-0.19-2.21-0.58-3.18
		c-0.39-0.97-1.29-1.46-2.7-1.46c-1.39,0-2.36,0.49-2.92,1.46c-0.56,0.97-0.85,2.03-0.88,3.18c0,0.05,0,0.1,0,0.14s0,0.07,0,0.1
		v10.48h-7.28v-33.2H626.99z"/>
	<path class="st0" d="M667.23,309.66v0.76h-15.32c0,1.49,0.39,2.63,1.16,3.42c0.77,0.79,1.91,1.18,3.4,1.18
		c0.77,0,1.45-0.15,2.02-0.44c0.57-0.29,1.06-0.77,1.46-1.44h7c-0.59,2.44-1.89,4.22-3.9,5.33s-4.19,1.67-6.54,1.67
		c-3.39,0-6.21-0.93-8.48-2.78c-2.27-1.85-3.4-4.55-3.4-8.1c0-3.41,1.06-6.09,3.18-8.04c2.12-1.95,4.85-2.92,8.18-2.92
		c3.57,0,6.34,1.03,8.3,3.08c1.96,2.05,2.94,4.83,2.94,8.32V309.66z M660.47,306.22c-0.19-0.96-0.67-1.73-1.46-2.32
		c-0.79-0.59-1.67-0.88-2.66-0.88c-1.07,0-2,0.27-2.8,0.81s-1.31,1.34-1.52,2.39H660.47z"/>
	<path class="st0" d="M692.27,319.46h-7.28v-14.52h-2.56v-6h2.56v-2.6c0-1.09,0.05-2.11,0.16-3.04c0.11-0.93,0.41-1.84,0.92-2.72
		c0.13-0.24,0.28-0.47,0.44-0.7c0.16-0.23,0.35-0.46,0.56-0.7c0.91-1.07,1.98-1.88,3.22-2.44c1.24-0.56,2.55-0.84,3.94-0.84
		c0.56,0,1.09,0.05,1.6,0.16c0.51,0.11,1.01,0.29,1.52,0.56v6.24c-0.11-0.03-0.22-0.07-0.34-0.12c-0.12-0.05-0.25-0.09-0.38-0.12
		c-0.29-0.13-0.59-0.23-0.88-0.3c-0.29-0.07-0.61-0.1-0.96-0.1c-0.93,0-1.59,0.28-1.96,0.84c-0.37,0.56-0.56,1.43-0.56,2.6v3.28
		h5.08v6h-5.08V319.46z"/>
	<path class="st0" d="M706.95,298.94v10.96c0,1.33,0.23,2.41,0.7,3.24s1.45,1.24,2.94,1.24c1.49,0,2.47-0.41,2.94-1.24
		s0.7-1.89,0.7-3.2v-11h7.28v12.36c0,3.41-1.05,5.74-3.14,6.98c-2.09,1.24-4.69,1.86-7.78,1.86c-3.07,0-5.65-0.62-7.76-1.86
		c-2.11-1.24-3.16-3.55-3.16-6.94v-12.4H706.95z"/>
	<path class="st0" d="M734.11,319.46h-7.28v-14.52h-2.36v-6h2.36v-6.16h7.28v6.16h4.12v6h-4.12V319.46z"/>
	<path class="st0" d="M747.71,298.94v10.96c0,1.33,0.23,2.41,0.7,3.24s1.45,1.24,2.94,1.24c1.49,0,2.47-0.41,2.94-1.24
		s0.7-1.89,0.7-3.2v-11h7.28v12.36c0,3.41-1.05,5.74-3.14,6.98c-2.09,1.24-4.69,1.86-7.78,1.86c-3.07,0-5.65-0.62-7.76-1.86
		c-2.11-1.24-3.16-3.55-3.16-6.94v-12.4H747.71z"/>
	<path class="st0" d="M774.19,302.3h0.08c0.69-1.23,1.62-2.13,2.78-2.72c1.16-0.59,2.45-0.88,3.86-0.88l1.4-0.04v7
		c-0.11-0.03-0.21-0.07-0.3-0.12c-0.09-0.05-0.19-0.09-0.3-0.12c-0.4-0.16-0.8-0.27-1.2-0.32c-0.4-0.05-0.83-0.08-1.28-0.08
		c-2.03,0-3.37,0.59-4.04,1.78c-0.67,1.19-1,2.66-1,4.42v8.24h-7.28v-20.52h7.28V302.3z"/>
	<path class="st0" d="M806.11,309.66v0.76h-15.32c0,1.49,0.39,2.63,1.16,3.42c0.77,0.79,1.91,1.18,3.4,1.18
		c0.77,0,1.45-0.15,2.02-0.44c0.57-0.29,1.06-0.77,1.46-1.44h7c-0.59,2.44-1.89,4.22-3.9,5.33s-4.19,1.67-6.54,1.67
		c-3.39,0-6.21-0.93-8.48-2.78c-2.27-1.85-3.4-4.55-3.4-8.1c0-3.41,1.06-6.09,3.18-8.04c2.12-1.95,4.85-2.92,8.18-2.92
		c3.57,0,6.34,1.03,8.3,3.08c1.96,2.05,2.94,4.83,2.94,8.32V309.66z M799.35,306.22c-0.19-0.96-0.67-1.73-1.46-2.32
		c-0.79-0.59-1.67-0.88-2.66-0.88c-1.07,0-2,0.27-2.8,0.81s-1.31,1.34-1.52,2.39H799.35z"/>
	<path class="st0" d="M831.11,319.46h-7.28v-14.52h-2.36v-6h2.36v-6.16h7.28v6.16h4.12v6h-4.12V319.46z"/>
	<path class="st0" d="M848.38,298.26c3.31,0.03,6.19,0.99,8.66,2.9c2.47,1.91,3.7,4.61,3.7,8.1c0,3.47-1.23,6.15-3.7,8.04
		c-2.47,1.89-5.35,2.84-8.66,2.84c-3.28,0-6.16-0.94-8.64-2.82c-2.48-1.88-3.72-4.57-3.72-8.06c0-3.49,1.23-6.19,3.7-8.1
		c2.47-1.91,5.35-2.86,8.66-2.86V298.26z M844.94,306c-0.83,0.92-1.24,2.01-1.24,3.26c0,1.31,0.41,2.4,1.24,3.28
		c0.83,0.88,1.97,1.32,3.44,1.32c1.49,0,2.65-0.44,3.46-1.33c0.81-0.88,1.22-1.98,1.22-3.29c0-1.26-0.41-2.35-1.22-3.27
		c-0.81-0.92-1.97-1.39-3.46-1.39C846.92,304.6,845.77,305.08,844.94,306z"/>
	<path class="st0" d="M879.46,317.18h-0.08c-0.59,0.96-1.39,1.67-2.4,2.14c-1.01,0.47-2.07,0.73-3.16,0.78
		c-0.11,0.03-0.21,0.04-0.32,0.04s-0.21,0-0.32,0c-3.04,0-5.53-1.09-7.46-3.26c-1.93-2.17-2.9-4.73-2.9-7.66
		c0-2.93,0.95-5.49,2.86-7.66c1.91-2.17,4.38-3.26,7.42-3.26c0.13,0,0.27,0,0.4,0c0.13,0,0.27,0.01,0.4,0.04
		c1.04,0.08,2.06,0.34,3.06,0.78s1.83,1.06,2.5,1.86v-14.72h7.28v33.2h-7.28V317.18z M871.58,306c-0.83,0.92-1.24,2.01-1.24,3.26
		c0,1.31,0.41,2.4,1.24,3.28c0.83,0.88,1.97,1.32,3.44,1.32c1.49,0,2.65-0.44,3.46-1.33c0.81-0.88,1.22-1.98,1.22-3.29
		c0-1.26-0.41-2.35-1.22-3.27c-0.81-0.92-1.97-1.39-3.46-1.39C873.56,304.6,872.41,305.08,871.58,306z"/>
	<path class="st0" d="M913.74,319.46h-7.28v-2.28h-0.08c-0.59,0.96-1.39,1.67-2.4,2.14c-1.01,0.47-2.07,0.73-3.16,0.78
		c-0.11,0.03-0.21,0.04-0.32,0.04s-0.21,0-0.32,0c-3.04,0-5.53-1.09-7.46-3.26c-1.93-2.17-2.9-4.73-2.9-7.66
		c0-2.93,0.95-5.49,2.86-7.66c1.91-2.17,4.38-3.26,7.42-3.26c0.13,0,0.27,0,0.4,0s0.27,0.01,0.4,0.04c1.04,0.08,2.06,0.34,3.06,0.78
		s1.83,1.06,2.5,1.86v-2.04h7.28V319.46z M898.58,306c-0.83,0.92-1.24,2.01-1.24,3.26c0,1.31,0.41,2.4,1.24,3.28
		s1.97,1.32,3.44,1.32c1.49,0,2.65-0.44,3.46-1.33s1.22-1.98,1.22-3.29c0-1.26-0.41-2.35-1.22-3.27s-1.97-1.39-3.46-1.39
		C900.56,304.6,899.41,305.08,898.58,306z"/>
	<path class="st0" d="M915.58,298.94h8.4l5.48,10.52l5.36-10.52h8.28l-16.44,30.76h-8.16l7-13.04L915.58,298.94z"/>
	<path class="st0" d="M948.86,312.3c0.91,0.91,1.36,2.01,1.36,3.32c0,1.28-0.45,2.37-1.36,3.28c-0.91,0.91-2.01,1.36-3.32,1.36
		s-2.41-0.46-3.32-1.37c-0.91-0.91-1.36-2.01-1.36-3.29c0-1.31,0.45-2.42,1.36-3.33s2.01-1.37,3.32-1.37
		C946.85,310.92,947.96,311.39,948.86,312.3z"/>
</g>
<g>
	<path class="st0" d="M401.41,261.41h-20.08v-60.25h-16.6v-17.01h53.28v17.01h-16.6V261.41z"/>
	<path class="st0" d="M445.37,201.16v12.91h22.65v17.01h-22.65v13.32h23.87v17.01h-43.96v-77.26h43.96v17.01H445.37z"/>
	<path class="st0" d="M536.87,186v24.08c-2.05-2.73-4.65-4.82-7.79-6.25c-3.14-1.43-6.42-2.15-9.84-2.15
		c-6.15,0-11.12,2.07-14.91,6.2c-3.79,4.13-5.69,9.21-5.69,15.22c0,6.08,1.93,11.1,5.79,15.06c3.86,3.96,8.9,5.94,15.11,5.94
		c3.28,0,6.46-0.73,9.53-2.2c3.07-1.47,5.67-3.47,7.79-5.99v23.98c-1.84,0.61-3.59,1.15-5.23,1.59c-1.64,0.44-3.25,0.84-4.82,1.18
		c-1.23,0.27-2.48,0.48-3.74,0.61c-1.26,0.14-2.58,0.21-3.94,0.21c-5.4,0-10.57-0.97-15.52-2.92c-4.95-1.95-9.44-4.73-13.47-8.35
		c-4.24-3.82-7.36-8.21-9.38-13.17c-2.02-4.95-3.02-10.3-3.02-16.04c0-5.26,0.97-10.35,2.92-15.27c1.95-4.92,4.76-9.26,8.45-13.01
		c3.69-3.76,8.03-6.75,13.01-8.97c4.99-2.22,10.14-3.4,15.47-3.54c0.14,0,0.29,0,0.46,0c0.17,0,0.32,0,0.46,0
		c3.21,0,6.33,0.34,9.38,1.02c3.04,0.68,6.03,1.64,8.97,2.87V186z"/>
	<path class="st0" d="M598.35,213.97v-29.82h20.08v77.26h-20.08v-31.66h-29v31.66h-20.08v-77.26h20.08v29.82H598.35z"/>
	<path class="st0" d="M631.55,184.15h20.08l36.79,47.24h0.21v-47.24h20.08v77.26h-20.08l-36.79-47.34h-0.2v47.34h-20.08V184.15z"/>
	<path class="st0" d="M760.65,181.59c11.13,0.07,21.04,3.81,29.71,11.22c8.67,7.41,13.01,16.96,13.01,28.64
		c0,12.5-4.01,22.71-12.04,30.64c-8.03,7.92-18.26,11.89-30.69,11.89c-12.37,0-22.58-3.96-30.64-11.89
		c-8.06-7.92-12.09-18.14-12.09-30.64c0-11.68,4.34-21.23,13.01-28.64c8.67-7.41,18.58-11.12,29.71-11.12V181.59z M745.23,207.36
		c-4.27,4.13-6.4,8.86-6.4,14.19c0,6.63,2.13,12.13,6.4,16.5c4.27,4.37,9.41,6.56,15.42,6.56c6.01,0,11.15-2.19,15.42-6.57
		c4.27-4.38,6.4-9.89,6.4-16.54c0-5.34-2.13-10.08-6.4-14.23c-4.27-4.14-9.41-6.21-15.42-6.21
		C754.64,201.13,749.5,203.23,745.23,207.36z"/>
	<path class="st0" d="M832.79,244.4h24.08v17.01h-44.16v-77.26h20.08V244.4z"/>
	<path class="st0" d="M902.26,181.59c11.13,0.07,21.04,3.81,29.71,11.22c8.68,7.41,13.01,16.96,13.01,28.64
		c0,12.5-4.01,22.71-12.04,30.64c-8.03,7.92-18.26,11.89-30.69,11.89c-12.37,0-22.58-3.96-30.64-11.89
		c-8.06-7.92-12.09-18.14-12.09-30.64c0-11.68,4.34-21.23,13.01-28.64c8.67-7.41,18.58-11.12,29.71-11.12V181.59z M886.84,207.36
		c-4.27,4.13-6.4,8.86-6.4,14.19c0,6.63,2.13,12.13,6.4,16.5c4.27,4.37,9.41,6.56,15.42,6.56c6.01,0,11.15-2.19,15.42-6.57
		c4.27-4.38,6.4-9.89,6.4-16.54c0-5.34-2.14-10.08-6.4-14.23c-4.27-4.14-9.41-6.21-15.42-6.21
		C896.25,201.13,891.11,203.23,886.84,207.36z"/>
	<path class="st0" d="M1031.37,218.27c-0.07,5.67-0.55,10.98-1.44,15.93c-0.89,4.95-3.04,9.85-6.46,14.7
		c-3.76,5.26-8.39,9.09-13.88,11.48c-5.5,2.39-11.49,3.59-17.98,3.59c-12.16,0-22.06-3.74-29.71-11.22s-11.48-17.3-11.48-29.46
		c0-12.57,3.88-22.65,11.63-30.23c7.75-7.58,17.84-11.37,30.28-11.37c7.92,0,14.88,1.79,20.85,5.38c5.98,3.59,10.64,9,13.99,16.24
		l-19.06,7.89c-1.37-3.62-3.48-6.56-6.35-8.81c-2.87-2.25-6.32-3.38-10.35-3.38c-6.22,0-11.01,2.32-14.4,6.97
		c-3.38,4.65-5.24,9.73-5.58,15.27c-0.07,0.34-0.1,0.7-0.1,1.08c0,0.38,0,0.73,0,1.08c0,0.07,0,0.15,0,0.26s0,0.22,0,0.36
		c0.13,5.88,1.95,11.27,5.43,16.19s8.47,7.38,14.96,7.38c4.37,0,8.06-1.13,11.07-3.38c3-2.25,4.71-5.6,5.12-10.04h-16.39v-15.88
		H1031.37z"/>
	<path class="st0" d="M1060.67,261.41h-20.08v-77.26h20.08V261.41z"/>
	<path class="st0" d="M1093.87,201.16v12.91h22.64v17.01h-22.64v13.32h23.88v17.01h-43.96v-77.26h43.96v17.01H1093.87z"/>
	<path class="st0" d="M1180.55,188.46l-7.99,15.57c-1.84-1.5-3.91-2.72-6.2-3.64c-2.29-0.92-4.66-1.38-7.12-1.38
		c-0.34,0-0.72,0.02-1.13,0.05c-0.41,0.04-0.82,0.12-1.23,0.26c-1.57,0.34-3.01,1.02-4.3,2.05c-1.3,1.02-1.95,2.39-1.95,4.1
		c0,1.64,0.62,2.96,1.84,3.94c1.23,0.99,2.56,1.79,4,2.41c0.55,0.21,1.08,0.39,1.59,0.56c0.51,0.17,1.01,0.32,1.49,0.46l5.12,1.43
		c5.4,1.64,9.92,4.01,13.58,7.12c3.65,3.11,5.48,7.81,5.48,14.09c0,0.27,0,0.55,0,0.82c0,0.27,0,0.55,0,0.82
		c-0.14,3.55-0.79,7.02-1.95,10.4s-3.18,6.3-6.04,8.76c-2.6,2.25-5.53,3.93-8.81,5.02c-3.28,1.09-6.63,1.78-10.04,2.05
		c-0.55,0-1.08,0.02-1.59,0.05c-0.51,0.03-1.01,0.05-1.49,0.05c-4.85,0-9.6-0.77-14.24-2.31c-4.65-1.54-8.95-3.67-12.91-6.4
		l8.61-16.29c2.53,2.25,5.28,4.17,8.25,5.74c2.97,1.57,6.16,2.36,9.58,2.36c0.14,0,0.27,0,0.41,0c0.14,0,0.27,0,0.41,0
		c2.25-0.14,4.3-0.84,6.15-2.1c1.85-1.26,2.77-3.16,2.77-5.69c0-1.91-0.77-3.45-2.3-4.61c-1.54-1.16-3.26-2.08-5.18-2.77
		c-0.82-0.27-1.64-0.53-2.46-0.77c-0.82-0.24-1.57-0.46-2.25-0.67c-0.14-0.07-0.29-0.12-0.46-0.15c-0.17-0.03-0.33-0.08-0.46-0.15
		c-6.08-1.71-10.93-3.89-14.55-6.56c-3.62-2.66-5.43-7.65-5.43-14.96c0-7.85,2.51-14.14,7.53-18.85c5.02-4.71,11.39-7.07,19.11-7.07
		c1.57,0,3.18,0.09,4.82,0.26c1.64,0.17,3.28,0.46,4.92,0.87c2.59,0.55,5.14,1.26,7.63,2.15c2.49,0.89,4.77,1.91,6.81,3.07V188.46z"
		/>
</g>
</svg>
